<mxfile host="app.diagrams.net" agent="Mozilla/5.0 (X11; Linux x86_64; rv:137.0) Gecko/20100101 Firefox/137.0" version="27.1.5">
  <diagram name="Page-1" id="ZFb-VurABWfA0u6sD8vo">
    <mxGraphModel dx="1994" dy="2230" grid="1" gridSize="10" guides="1" tooltips="1" connect="1" arrows="1" fold="1" page="1" pageScale="1" pageWidth="850" pageHeight="1100" math="0" shadow="0">
      <root>
        <mxCell id="0" />
        <mxCell id="1" parent="0" />
        <mxCell id="SCgSe4FGh3BIuNATgcF7-69" value="1000Base-T" style="edgeStyle=orthogonalEdgeStyle;rounded=0;orthogonalLoop=1;jettySize=auto;html=1;startArrow=classic;startFill=1;" parent="1" source="SCgSe4FGh3BIuNATgcF7-1" edge="1">
          <mxGeometry relative="1" as="geometry">
            <mxPoint x="920" y="540.04347826087" as="targetPoint" />
            <Array as="points">
              <mxPoint x="1010" y="540" />
              <mxPoint x="1010" y="540" />
            </Array>
          </mxGeometry>
        </mxCell>
        <mxCell id="SCgSe4FGh3BIuNATgcF7-1" value="&lt;div&gt;Ethernet&lt;/div&gt;" style="rounded=0;whiteSpace=wrap;html=1;" parent="1" vertex="1">
          <mxGeometry x="1320" y="400" width="80" height="160" as="geometry" />
        </mxCell>
        <mxCell id="SCgSe4FGh3BIuNATgcF7-2" value="NVMe" style="rounded=0;whiteSpace=wrap;html=1;" parent="1" vertex="1">
          <mxGeometry x="120" y="800" width="120" height="120" as="geometry" />
        </mxCell>
        <mxCell id="SCgSe4FGh3BIuNATgcF7-3" value="SD" style="rounded=0;whiteSpace=wrap;html=1;" parent="1" vertex="1">
          <mxGeometry x="280" y="800" width="120" height="120" as="geometry" />
        </mxCell>
        <mxCell id="SCgSe4FGh3BIuNATgcF7-4" value="USB-C (In)" style="rounded=0;whiteSpace=wrap;html=1;" parent="1" vertex="1">
          <mxGeometry x="1320" y="200" width="80" height="160" as="geometry" />
        </mxCell>
        <mxCell id="SCgSe4FGh3BIuNATgcF7-5" value="&lt;div&gt;USB-C Out1&lt;/div&gt;" style="rounded=0;whiteSpace=wrap;html=1;" parent="1" vertex="1">
          <mxGeometry y="200" width="80" height="160" as="geometry" />
        </mxCell>
        <mxCell id="SCgSe4FGh3BIuNATgcF7-6" value="USB-PD Controller (Source)" style="rounded=0;whiteSpace=wrap;html=1;" parent="1" vertex="1">
          <mxGeometry x="160" y="240" width="120" height="40" as="geometry" />
        </mxCell>
        <mxCell id="SCgSe4FGh3BIuNATgcF7-49" value="D-PHY (4-lane)" style="edgeStyle=orthogonalEdgeStyle;rounded=0;orthogonalLoop=1;jettySize=auto;html=1;exitX=0.25;exitY=0;exitDx=0;exitDy=0;entryX=0.25;entryY=1;entryDx=0;entryDy=0;" parent="1" edge="1">
          <mxGeometry x="0.5" relative="1" as="geometry">
            <mxPoint x="640" y="200" as="sourcePoint" />
            <mxPoint x="640" y="120" as="targetPoint" />
            <mxPoint as="offset" />
          </mxGeometry>
        </mxCell>
        <mxCell id="SCgSe4FGh3BIuNATgcF7-58" value="I2C" style="edgeStyle=orthogonalEdgeStyle;rounded=0;orthogonalLoop=1;jettySize=auto;html=1;exitX=0.5;exitY=0;exitDx=0;exitDy=0;entryX=0.5;entryY=1;entryDx=0;entryDy=0;" parent="1" edge="1">
          <mxGeometry x="0.5" relative="1" as="geometry">
            <mxPoint x="700" y="200" as="sourcePoint" />
            <mxPoint x="700" y="120" as="targetPoint" />
            <Array as="points">
              <mxPoint x="700" y="140" />
              <mxPoint x="700" y="140" />
            </Array>
            <mxPoint as="offset" />
          </mxGeometry>
        </mxCell>
        <mxCell id="SCgSe4FGh3BIuNATgcF7-60" value="I2C" style="edgeStyle=orthogonalEdgeStyle;rounded=0;orthogonalLoop=1;jettySize=auto;html=1;exitX=0.5;exitY=1;exitDx=0;exitDy=0;" parent="1" edge="1">
          <mxGeometry x="0.5" relative="1" as="geometry">
            <mxPoint x="700" y="720" as="sourcePoint" />
            <mxPoint x="700" y="800" as="targetPoint" />
            <mxPoint as="offset" />
          </mxGeometry>
        </mxCell>
        <mxCell id="SCgSe4FGh3BIuNATgcF7-7" value="CM5" style="rounded=0;whiteSpace=wrap;html=1;" parent="1" vertex="1">
          <mxGeometry x="440" y="200" width="480" height="520" as="geometry" />
        </mxCell>
        <mxCell id="SCgSe4FGh3BIuNATgcF7-9" value="&lt;div&gt;USB-C Out1&lt;/div&gt;" style="rounded=0;whiteSpace=wrap;html=1;" parent="1" vertex="1">
          <mxGeometry y="440" width="80" height="160" as="geometry" />
        </mxCell>
        <mxCell id="SCgSe4FGh3BIuNATgcF7-92" style="edgeStyle=orthogonalEdgeStyle;rounded=0;orthogonalLoop=1;jettySize=auto;html=1;entryX=0;entryY=0.5;entryDx=0;entryDy=0;endArrow=none;startFill=0;" parent="1" source="SCgSe4FGh3BIuNATgcF7-10" target="SCgSe4FGh3BIuNATgcF7-12" edge="1">
          <mxGeometry relative="1" as="geometry">
            <Array as="points">
              <mxPoint x="960" y="120" />
              <mxPoint x="960" y="240" />
            </Array>
          </mxGeometry>
        </mxCell>
        <mxCell id="SCgSe4FGh3BIuNATgcF7-10" value="&lt;div&gt;DC-Jack&lt;/div&gt;" style="rounded=0;whiteSpace=wrap;html=1;" parent="1" vertex="1">
          <mxGeometry x="1320" y="80" width="80" height="80" as="geometry" />
        </mxCell>
        <mxCell id="SCgSe4FGh3BIuNATgcF7-11" value="USB-PD Controller (Sink)" style="rounded=0;whiteSpace=wrap;html=1;" parent="1" vertex="1">
          <mxGeometry x="1120" y="240" width="120" height="40" as="geometry" />
        </mxCell>
        <mxCell id="SCgSe4FGh3BIuNATgcF7-91" style="edgeStyle=orthogonalEdgeStyle;rounded=0;orthogonalLoop=1;jettySize=auto;html=1;entryX=0;entryY=0.5;entryDx=0;entryDy=0;endArrow=none;startFill=0;" parent="1" source="SCgSe4FGh3BIuNATgcF7-12" target="SCgSe4FGh3BIuNATgcF7-19" edge="1">
          <mxGeometry relative="1" as="geometry">
            <Array as="points">
              <mxPoint x="960" y="240" />
              <mxPoint x="960" y="440" />
            </Array>
          </mxGeometry>
        </mxCell>
        <mxCell id="SCgSe4FGh3BIuNATgcF7-12" value="Buck-Boost" style="rounded=0;whiteSpace=wrap;html=1;" parent="1" vertex="1">
          <mxGeometry x="1000" y="200" width="80" height="80" as="geometry" />
        </mxCell>
        <mxCell id="SCgSe4FGh3BIuNATgcF7-14" value="&lt;div&gt;POE++ Controller&lt;/div&gt;" style="rounded=0;whiteSpace=wrap;html=1;" parent="1" vertex="1">
          <mxGeometry x="1120" y="440" width="80" height="40" as="geometry" />
        </mxCell>
        <mxCell id="SCgSe4FGh3BIuNATgcF7-15" value="USB-PD Controller (Source)" style="rounded=0;whiteSpace=wrap;html=1;" parent="1" vertex="1">
          <mxGeometry x="160" y="480" width="120" height="40" as="geometry" />
        </mxCell>
        <mxCell id="SCgSe4FGh3BIuNATgcF7-17" value="&lt;div&gt;MIPI1&lt;/div&gt;" style="rounded=0;whiteSpace=wrap;html=1;" parent="1" vertex="1">
          <mxGeometry x="560" width="360" height="120" as="geometry" />
        </mxCell>
        <mxCell id="SCgSe4FGh3BIuNATgcF7-50" style="edgeStyle=orthogonalEdgeStyle;rounded=0;orthogonalLoop=1;jettySize=auto;html=1;exitX=0.25;exitY=0;exitDx=0;exitDy=0;entryX=0.25;entryY=1;entryDx=0;entryDy=0;startArrow=classic;startFill=1;endArrow=none;" parent="1" edge="1">
          <mxGeometry relative="1" as="geometry">
            <mxPoint x="640" y="800" as="sourcePoint" />
            <mxPoint x="640" y="720" as="targetPoint" />
          </mxGeometry>
        </mxCell>
        <mxCell id="SCgSe4FGh3BIuNATgcF7-51" value="D-PHY (4-lane)" style="edgeLabel;html=1;align=center;verticalAlign=middle;resizable=0;points=[];" parent="SCgSe4FGh3BIuNATgcF7-50" vertex="1" connectable="0">
          <mxGeometry x="-0.2048" y="-1" relative="1" as="geometry">
            <mxPoint x="-1" y="12" as="offset" />
          </mxGeometry>
        </mxCell>
        <mxCell id="SCgSe4FGh3BIuNATgcF7-18" value="MIPI2" style="rounded=0;whiteSpace=wrap;html=1;" parent="1" vertex="1">
          <mxGeometry x="560" y="800" width="360" height="120" as="geometry" />
        </mxCell>
        <mxCell id="SCgSe4FGh3BIuNATgcF7-19" value="Isolated DC/DC" style="rounded=0;whiteSpace=wrap;html=1;" parent="1" vertex="1">
          <mxGeometry x="1000" y="400" width="80" height="80" as="geometry" />
        </mxCell>
        <mxCell id="SCgSe4FGh3BIuNATgcF7-38" value="Data" style="edgeStyle=orthogonalEdgeStyle;rounded=0;orthogonalLoop=1;jettySize=auto;html=1;startArrow=classic;startFill=1;" parent="1" source="SCgSe4FGh3BIuNATgcF7-21" target="SCgSe4FGh3BIuNATgcF7-7" edge="1">
          <mxGeometry x="-0.3514" relative="1" as="geometry">
            <Array as="points">
              <mxPoint x="1100" y="660" />
              <mxPoint x="1100" y="670" />
            </Array>
            <mxPoint as="offset" />
          </mxGeometry>
        </mxCell>
        <mxCell id="SCgSe4FGh3BIuNATgcF7-21" value="Micro HDMI" style="rounded=0;whiteSpace=wrap;html=1;" parent="1" vertex="1">
          <mxGeometry x="1320" y="600" width="80" height="80" as="geometry" />
        </mxCell>
        <mxCell id="SCgSe4FGh3BIuNATgcF7-36" value="Data" style="edgeStyle=orthogonalEdgeStyle;rounded=0;orthogonalLoop=1;jettySize=auto;html=1;exitX=0;exitY=0.25;exitDx=0;exitDy=0;startArrow=classic;startFill=1;" parent="1" source="SCgSe4FGh3BIuNATgcF7-22" target="SCgSe4FGh3BIuNATgcF7-7" edge="1">
          <mxGeometry x="-0.4146" relative="1" as="geometry">
            <Array as="points">
              <mxPoint x="1100" y="740" />
              <mxPoint x="1100" y="690" />
            </Array>
            <mxPoint as="offset" />
          </mxGeometry>
        </mxCell>
        <mxCell id="SCgSe4FGh3BIuNATgcF7-22" value="Micro HDMI" style="rounded=0;whiteSpace=wrap;html=1;" parent="1" vertex="1">
          <mxGeometry x="1320" y="720" width="80" height="80" as="geometry" />
        </mxCell>
        <mxCell id="SCgSe4FGh3BIuNATgcF7-24" value="ESD" style="rounded=0;whiteSpace=wrap;html=1;" parent="1" vertex="1">
          <mxGeometry x="1240" y="660" width="40" height="20" as="geometry" />
        </mxCell>
        <mxCell id="SCgSe4FGh3BIuNATgcF7-25" value="ESD" style="rounded=0;whiteSpace=wrap;html=1;" parent="1" vertex="1">
          <mxGeometry x="1240" y="720" width="40" height="20" as="geometry" />
        </mxCell>
        <mxCell id="SCgSe4FGh3BIuNATgcF7-26" value="ESD" style="rounded=0;whiteSpace=wrap;html=1;" parent="1" vertex="1">
          <mxGeometry x="1240" y="520" width="40" height="20" as="geometry" />
        </mxCell>
        <mxCell id="SCgSe4FGh3BIuNATgcF7-27" value="ESD" style="rounded=0;whiteSpace=wrap;html=1;" parent="1" vertex="1">
          <mxGeometry x="1240" y="320" width="40" height="20" as="geometry" />
        </mxCell>
        <mxCell id="SCgSe4FGh3BIuNATgcF7-124" style="edgeStyle=orthogonalEdgeStyle;rounded=0;orthogonalLoop=1;jettySize=auto;html=1;exitX=0;exitY=0.25;exitDx=0;exitDy=0;" parent="1" source="SCgSe4FGh3BIuNATgcF7-28" target="SCgSe4FGh3BIuNATgcF7-9" edge="1">
          <mxGeometry relative="1" as="geometry">
            <Array as="points">
              <mxPoint x="130" y="460" />
              <mxPoint x="130" y="460" />
            </Array>
          </mxGeometry>
        </mxCell>
        <mxCell id="SCgSe4FGh3BIuNATgcF7-125" value="&lt;div&gt;VBUS&lt;/div&gt;" style="edgeLabel;html=1;align=center;verticalAlign=middle;resizable=0;points=[];" parent="SCgSe4FGh3BIuNATgcF7-124" vertex="1" connectable="0">
          <mxGeometry x="0.4979" relative="1" as="geometry">
            <mxPoint x="60" as="offset" />
          </mxGeometry>
        </mxCell>
        <mxCell id="SCgSe4FGh3BIuNATgcF7-28" value="&lt;div&gt;Buck&lt;/div&gt;" style="rounded=0;whiteSpace=wrap;html=1;" parent="1" vertex="1">
          <mxGeometry x="320" y="440" width="80" height="80" as="geometry" />
        </mxCell>
        <mxCell id="SCgSe4FGh3BIuNATgcF7-29" value="&lt;div&gt;Buck&lt;/div&gt;" style="rounded=0;whiteSpace=wrap;html=1;" parent="1" vertex="1">
          <mxGeometry x="320" y="200" width="80" height="80" as="geometry" />
        </mxCell>
        <mxCell id="SCgSe4FGh3BIuNATgcF7-30" value="ESD" style="rounded=0;whiteSpace=wrap;html=1;" parent="1" vertex="1">
          <mxGeometry x="120" y="560" width="40" height="20" as="geometry" />
        </mxCell>
        <mxCell id="SCgSe4FGh3BIuNATgcF7-52" value="5V" style="endArrow=classic;html=1;rounded=0;entryX=0.75;entryY=0;entryDx=0;entryDy=0;" parent="1" edge="1">
          <mxGeometry x="-1" width="50" height="50" relative="1" as="geometry">
            <mxPoint x="840" y="770" as="sourcePoint" />
            <mxPoint x="840.0000000000002" y="800" as="targetPoint" />
            <mxPoint as="offset" />
          </mxGeometry>
        </mxCell>
        <mxCell id="SCgSe4FGh3BIuNATgcF7-53" value="12V" style="endArrow=classic;html=1;rounded=0;entryX=0.75;entryY=0;entryDx=0;entryDy=0;" parent="1" edge="1">
          <mxGeometry x="-1" width="50" height="50" relative="1" as="geometry">
            <mxPoint x="880" y="770" as="sourcePoint" />
            <mxPoint x="880" y="800" as="targetPoint" />
            <mxPoint as="offset" />
          </mxGeometry>
        </mxCell>
        <mxCell id="SCgSe4FGh3BIuNATgcF7-56" value="5V" style="endArrow=classic;html=1;rounded=0;entryX=0.75;entryY=1;entryDx=0;entryDy=0;" parent="1" edge="1">
          <mxGeometry x="-1" width="50" height="50" relative="1" as="geometry">
            <mxPoint x="840" y="150" as="sourcePoint" />
            <mxPoint x="840" y="120.00000000000006" as="targetPoint" />
            <mxPoint as="offset" />
          </mxGeometry>
        </mxCell>
        <mxCell id="SCgSe4FGh3BIuNATgcF7-57" value="12V" style="endArrow=classic;html=1;rounded=0;entryX=0.75;entryY=1;entryDx=0;entryDy=0;" parent="1" edge="1">
          <mxGeometry x="-1" width="50" height="50" relative="1" as="geometry">
            <mxPoint x="880" y="149.99999999999994" as="sourcePoint" />
            <mxPoint x="880" y="120" as="targetPoint" />
            <mxPoint as="offset" />
          </mxGeometry>
        </mxCell>
        <mxCell id="SCgSe4FGh3BIuNATgcF7-59" value="GPIO" style="edgeStyle=orthogonalEdgeStyle;rounded=0;orthogonalLoop=1;jettySize=auto;html=1;exitX=0.5;exitY=0;exitDx=0;exitDy=0;entryX=0.5;entryY=1;entryDx=0;entryDy=0;" parent="1" edge="1">
          <mxGeometry x="0.5" relative="1" as="geometry">
            <mxPoint x="760" y="200" as="sourcePoint" />
            <mxPoint x="760" y="120" as="targetPoint" />
            <mxPoint as="offset" />
            <Array as="points">
              <mxPoint x="760" y="140" />
              <mxPoint x="760" y="140" />
            </Array>
          </mxGeometry>
        </mxCell>
        <mxCell id="SCgSe4FGh3BIuNATgcF7-61" value="GPIO" style="edgeStyle=orthogonalEdgeStyle;rounded=0;orthogonalLoop=1;jettySize=auto;html=1;exitX=0.5;exitY=1;exitDx=0;exitDy=0;" parent="1" edge="1">
          <mxGeometry x="0.5" relative="1" as="geometry">
            <mxPoint x="760" y="720" as="sourcePoint" />
            <mxPoint x="760" y="800" as="targetPoint" />
            <mxPoint as="offset" />
          </mxGeometry>
        </mxCell>
        <mxCell id="SCgSe4FGh3BIuNATgcF7-67" value="VBUS" style="endArrow=classic;html=1;rounded=0;" parent="1" edge="1">
          <mxGeometry width="50" height="50" relative="1" as="geometry">
            <mxPoint x="1320" y="220" as="sourcePoint" />
            <mxPoint x="1080" y="220" as="targetPoint" />
          </mxGeometry>
        </mxCell>
        <mxCell id="SCgSe4FGh3BIuNATgcF7-70" value="Rectification" style="rounded=0;whiteSpace=wrap;html=1;horizontal=0;" parent="1" vertex="1">
          <mxGeometry x="1240" y="400" width="40" height="80" as="geometry" />
        </mxCell>
        <mxCell id="SCgSe4FGh3BIuNATgcF7-71" value="" style="endArrow=classic;html=1;rounded=0;" parent="1" edge="1">
          <mxGeometry width="50" height="50" relative="1" as="geometry">
            <mxPoint x="1320" y="420" as="sourcePoint" />
            <mxPoint x="1280" y="420" as="targetPoint" />
          </mxGeometry>
        </mxCell>
        <mxCell id="SCgSe4FGh3BIuNATgcF7-72" value="" style="endArrow=classic;html=1;rounded=0;exitX=0;exitY=0.25;exitDx=0;exitDy=0;" parent="1" source="SCgSe4FGh3BIuNATgcF7-70" edge="1">
          <mxGeometry width="50" height="50" relative="1" as="geometry">
            <mxPoint x="1120" y="420" as="sourcePoint" />
            <mxPoint x="1080" y="420" as="targetPoint" />
          </mxGeometry>
        </mxCell>
        <mxCell id="SCgSe4FGh3BIuNATgcF7-73" value="" style="endArrow=none;html=1;rounded=0;exitX=0.5;exitY=0;exitDx=0;exitDy=0;" parent="1" source="SCgSe4FGh3BIuNATgcF7-14" edge="1">
          <mxGeometry width="50" height="50" relative="1" as="geometry">
            <mxPoint x="1160" y="410" as="sourcePoint" />
            <mxPoint x="1160" y="420" as="targetPoint" />
          </mxGeometry>
        </mxCell>
        <mxCell id="SCgSe4FGh3BIuNATgcF7-75" value="" style="endArrow=classic;html=1;rounded=0;exitX=1;exitY=0.5;exitDx=0;exitDy=0;entryX=0;entryY=0.75;entryDx=0;entryDy=0;" parent="1" source="SCgSe4FGh3BIuNATgcF7-15" target="SCgSe4FGh3BIuNATgcF7-28" edge="1">
          <mxGeometry width="50" height="50" relative="1" as="geometry">
            <mxPoint x="200" y="470" as="sourcePoint" />
            <mxPoint x="250" y="420" as="targetPoint" />
          </mxGeometry>
        </mxCell>
        <mxCell id="SCgSe4FGh3BIuNATgcF7-76" value="" style="endArrow=classic;html=1;rounded=0;exitX=1;exitY=0.5;exitDx=0;exitDy=0;entryX=0;entryY=0.75;entryDx=0;entryDy=0;" parent="1" source="SCgSe4FGh3BIuNATgcF7-6" target="SCgSe4FGh3BIuNATgcF7-29" edge="1">
          <mxGeometry width="50" height="50" relative="1" as="geometry">
            <mxPoint x="240" y="260" as="sourcePoint" />
            <mxPoint x="280" y="260" as="targetPoint" />
          </mxGeometry>
        </mxCell>
        <mxCell id="SCgSe4FGh3BIuNATgcF7-77" value="USB 3.0" style="edgeStyle=orthogonalEdgeStyle;rounded=0;orthogonalLoop=1;jettySize=auto;html=1;startArrow=classic;startFill=1;" parent="1" edge="1">
          <mxGeometry relative="1" as="geometry">
            <mxPoint x="320" y="560" as="sourcePoint" />
            <mxPoint x="80" y="560" as="targetPoint" />
            <Array as="points">
              <mxPoint x="170" y="560" />
              <mxPoint x="170" y="560" />
            </Array>
          </mxGeometry>
        </mxCell>
        <mxCell id="SCgSe4FGh3BIuNATgcF7-79" value="CC" style="endArrow=classic;html=1;rounded=0;exitX=1;exitY=0.5;exitDx=0;exitDy=0;entryX=1;entryY=0.5;entryDx=0;entryDy=0;startArrow=classic;startFill=1;" parent="1" target="SCgSe4FGh3BIuNATgcF7-11" edge="1">
          <mxGeometry width="50" height="50" relative="1" as="geometry">
            <mxPoint x="1320" y="259.58" as="sourcePoint" />
            <mxPoint x="1360" y="259.58" as="targetPoint" />
          </mxGeometry>
        </mxCell>
        <mxCell id="SCgSe4FGh3BIuNATgcF7-80" value="CC" style="endArrow=classic;html=1;rounded=0;entryX=1;entryY=0.5;entryDx=0;entryDy=0;startArrow=classic;startFill=1;exitX=0;exitY=0.5;exitDx=0;exitDy=0;" parent="1" source="SCgSe4FGh3BIuNATgcF7-15" edge="1">
          <mxGeometry width="50" height="50" relative="1" as="geometry">
            <mxPoint x="120" y="500" as="sourcePoint" />
            <mxPoint x="80" y="500" as="targetPoint" />
          </mxGeometry>
        </mxCell>
        <mxCell id="SCgSe4FGh3BIuNATgcF7-81" value="CC" style="endArrow=classic;html=1;rounded=0;startArrow=classic;startFill=1;exitX=0;exitY=0.5;exitDx=0;exitDy=0;" parent="1" source="SCgSe4FGh3BIuNATgcF7-6" edge="1">
          <mxGeometry width="50" height="50" relative="1" as="geometry">
            <mxPoint x="180" y="299.71" as="sourcePoint" />
            <mxPoint x="80" y="260" as="targetPoint" />
          </mxGeometry>
        </mxCell>
        <mxCell id="SCgSe4FGh3BIuNATgcF7-82" value="12V" style="endArrow=classic;html=1;rounded=0;entryX=0.5;entryY=0;entryDx=0;entryDy=0;" parent="1" target="SCgSe4FGh3BIuNATgcF7-28" edge="1">
          <mxGeometry x="-1" width="50" height="50" relative="1" as="geometry">
            <mxPoint x="360" y="410" as="sourcePoint" />
            <mxPoint x="840" y="550" as="targetPoint" />
            <mxPoint as="offset" />
          </mxGeometry>
        </mxCell>
        <mxCell id="SCgSe4FGh3BIuNATgcF7-83" value="12V" style="endArrow=classic;html=1;rounded=0;" parent="1" edge="1">
          <mxGeometry x="-1" width="50" height="50" relative="1" as="geometry">
            <mxPoint x="359.86" y="170" as="sourcePoint" />
            <mxPoint x="360" y="200" as="targetPoint" />
            <mxPoint as="offset" />
          </mxGeometry>
        </mxCell>
        <mxCell id="SCgSe4FGh3BIuNATgcF7-85" value="SD" style="edgeStyle=orthogonalEdgeStyle;rounded=0;orthogonalLoop=1;jettySize=auto;html=1;entryX=0;entryY=0.923;entryDx=0;entryDy=0;entryPerimeter=0;startArrow=classic;startFill=1;" parent="1" source="SCgSe4FGh3BIuNATgcF7-3" edge="1">
          <mxGeometry relative="1" as="geometry">
            <mxPoint x="440" y="679.96" as="targetPoint" />
            <Array as="points">
              <mxPoint x="380" y="680" />
            </Array>
          </mxGeometry>
        </mxCell>
        <mxCell id="SCgSe4FGh3BIuNATgcF7-87" value="&lt;div&gt;3V3_NVMe&lt;/div&gt;" style="endArrow=classic;html=1;rounded=0;" parent="1" edge="1">
          <mxGeometry x="-1" width="50" height="50" relative="1" as="geometry">
            <mxPoint x="140" y="770" as="sourcePoint" />
            <mxPoint x="139.82999999999998" y="800" as="targetPoint" />
            <mxPoint as="offset" />
          </mxGeometry>
        </mxCell>
        <mxCell id="SCgSe4FGh3BIuNATgcF7-88" value="&lt;div&gt;3V3&lt;/div&gt;" style="endArrow=classic;html=1;rounded=0;" parent="1" edge="1">
          <mxGeometry x="-1" width="50" height="50" relative="1" as="geometry">
            <mxPoint x="300" y="770" as="sourcePoint" />
            <mxPoint x="300" y="800" as="targetPoint" />
            <mxPoint as="offset" />
          </mxGeometry>
        </mxCell>
        <mxCell id="SCgSe4FGh3BIuNATgcF7-89" value="ESD" style="rounded=0;whiteSpace=wrap;html=1;" parent="1" vertex="1">
          <mxGeometry x="340" y="740" width="40" height="20" as="geometry" />
        </mxCell>
        <mxCell id="SCgSe4FGh3BIuNATgcF7-93" value="VCC (12V)" style="endArrow=classic;startArrow=none;html=1;rounded=0;startFill=0;" parent="1" edge="1">
          <mxGeometry width="50" height="50" relative="1" as="geometry">
            <mxPoint x="960" y="120" as="sourcePoint" />
            <mxPoint x="960" y="80" as="targetPoint" />
            <mxPoint as="offset" />
          </mxGeometry>
        </mxCell>
        <mxCell id="SCgSe4FGh3BIuNATgcF7-94" value="DC/DC" style="rounded=0;whiteSpace=wrap;html=1;" parent="1" vertex="1">
          <mxGeometry x="960" y="960" width="40" height="40" as="geometry" />
        </mxCell>
        <mxCell id="SCgSe4FGh3BIuNATgcF7-97" value="VCC" style="endArrow=classic;html=1;rounded=0;" parent="1" edge="1">
          <mxGeometry x="-1" width="50" height="50" relative="1" as="geometry">
            <mxPoint x="980" y="890" as="sourcePoint" />
            <mxPoint x="979.81" y="960" as="targetPoint" />
            <mxPoint as="offset" />
            <Array as="points">
              <mxPoint x="980" y="920" />
            </Array>
          </mxGeometry>
        </mxCell>
        <mxCell id="SCgSe4FGh3BIuNATgcF7-98" value="OVP" style="rounded=0;whiteSpace=wrap;html=1;" parent="1" vertex="1">
          <mxGeometry x="1240" y="120" width="40" height="40" as="geometry" />
        </mxCell>
        <mxCell id="SCgSe4FGh3BIuNATgcF7-99" value="USB 2.0" style="edgeStyle=orthogonalEdgeStyle;rounded=0;orthogonalLoop=1;jettySize=auto;html=1;startArrow=classic;startFill=1;" parent="1" edge="1">
          <mxGeometry relative="1" as="geometry">
            <mxPoint x="1320" y="340" as="sourcePoint" />
            <mxPoint x="920" y="340" as="targetPoint" />
            <Array as="points">
              <mxPoint x="1010" y="340" />
              <mxPoint x="1010" y="340" />
            </Array>
          </mxGeometry>
        </mxCell>
        <mxCell id="SCgSe4FGh3BIuNATgcF7-100" value="5V (5A)" style="endArrow=none;html=1;rounded=0;startArrow=classic;startFill=1;" parent="1" edge="1">
          <mxGeometry x="-1" y="-10" width="50" height="50" relative="1" as="geometry">
            <mxPoint x="980" y="1020" as="sourcePoint" />
            <mxPoint x="979.84" y="1000" as="targetPoint" />
            <mxPoint x="-10" y="10" as="offset" />
          </mxGeometry>
        </mxCell>
        <mxCell id="SCgSe4FGh3BIuNATgcF7-122" style="edgeStyle=orthogonalEdgeStyle;rounded=0;orthogonalLoop=1;jettySize=auto;html=1;entryX=0.5;entryY=0;entryDx=0;entryDy=0;endArrow=none;startFill=1;startArrow=classic;" parent="1" source="SCgSe4FGh3BIuNATgcF7-101" target="SCgSe4FGh3BIuNATgcF7-94" edge="1">
          <mxGeometry relative="1" as="geometry">
            <Array as="points">
              <mxPoint x="1060" y="920" />
              <mxPoint x="980" y="920" />
            </Array>
          </mxGeometry>
        </mxCell>
        <mxCell id="SCgSe4FGh3BIuNATgcF7-101" value="&lt;div&gt;Buck&lt;/div&gt;" style="rounded=0;whiteSpace=wrap;html=1;" parent="1" vertex="1">
          <mxGeometry x="1040" y="960" width="40" height="40" as="geometry" />
        </mxCell>
        <mxCell id="SCgSe4FGh3BIuNATgcF7-103" value="3V3_NVMe (3A)" style="endArrow=none;html=1;rounded=0;startArrow=classic;startFill=1;" parent="1" edge="1">
          <mxGeometry x="-1" y="-10" width="50" height="50" relative="1" as="geometry">
            <mxPoint x="1060.1599999999999" y="1020" as="sourcePoint" />
            <mxPoint x="1060" y="1000" as="targetPoint" />
            <mxPoint x="-10" y="10" as="offset" />
          </mxGeometry>
        </mxCell>
        <mxCell id="SCgSe4FGh3BIuNATgcF7-123" style="edgeStyle=orthogonalEdgeStyle;rounded=0;orthogonalLoop=1;jettySize=auto;html=1;entryX=0.5;entryY=0;entryDx=0;entryDy=0;endArrow=none;startFill=1;startArrow=classic;" parent="1" source="SCgSe4FGh3BIuNATgcF7-106" target="SCgSe4FGh3BIuNATgcF7-101" edge="1">
          <mxGeometry relative="1" as="geometry">
            <Array as="points">
              <mxPoint x="1140" y="920" />
              <mxPoint x="1060" y="920" />
            </Array>
          </mxGeometry>
        </mxCell>
        <mxCell id="SCgSe4FGh3BIuNATgcF7-106" value="&lt;div&gt;Buck&lt;/div&gt;" style="rounded=0;whiteSpace=wrap;html=1;" parent="1" vertex="1">
          <mxGeometry x="1120" y="960" width="40" height="40" as="geometry" />
        </mxCell>
        <mxCell id="SCgSe4FGh3BIuNATgcF7-107" value="3V3 (3A)" style="endArrow=none;html=1;rounded=0;startArrow=classic;startFill=1;" parent="1" edge="1">
          <mxGeometry x="-1" y="-10" width="50" height="50" relative="1" as="geometry">
            <mxPoint x="1140.1599999999999" y="1020" as="sourcePoint" />
            <mxPoint x="1140" y="1000" as="targetPoint" />
            <mxPoint x="-10" y="10" as="offset" />
          </mxGeometry>
        </mxCell>
        <mxCell id="SCgSe4FGh3BIuNATgcF7-108" value="ESD" style="rounded=0;whiteSpace=wrap;html=1;" parent="1" vertex="1">
          <mxGeometry x="600" y="160" width="40" height="20" as="geometry" />
        </mxCell>
        <mxCell id="SCgSe4FGh3BIuNATgcF7-109" value="ESD" style="rounded=0;whiteSpace=wrap;html=1;" parent="1" vertex="1">
          <mxGeometry x="660" y="160" width="40" height="20" as="geometry" />
        </mxCell>
        <mxCell id="SCgSe4FGh3BIuNATgcF7-110" value="ESD" style="rounded=0;whiteSpace=wrap;html=1;" parent="1" vertex="1">
          <mxGeometry x="720" y="160" width="40" height="20" as="geometry" />
        </mxCell>
        <mxCell id="SCgSe4FGh3BIuNATgcF7-112" value="ESD" style="rounded=0;whiteSpace=wrap;html=1;" parent="1" vertex="1">
          <mxGeometry x="600" y="740" width="40" height="20" as="geometry" />
        </mxCell>
        <mxCell id="SCgSe4FGh3BIuNATgcF7-113" value="ESD" style="rounded=0;whiteSpace=wrap;html=1;" parent="1" vertex="1">
          <mxGeometry x="660" y="740" width="40" height="20" as="geometry" />
        </mxCell>
        <mxCell id="SCgSe4FGh3BIuNATgcF7-114" value="ESD" style="rounded=0;whiteSpace=wrap;html=1;" parent="1" vertex="1">
          <mxGeometry x="720" y="740" width="40" height="20" as="geometry" />
        </mxCell>
        <mxCell id="SCgSe4FGh3BIuNATgcF7-115" value="MIPI2" style="rounded=0;whiteSpace=wrap;html=1;" parent="1" vertex="1">
          <mxGeometry x="560" y="920" width="360" height="120" as="geometry" />
        </mxCell>
        <mxCell id="SCgSe4FGh3BIuNATgcF7-116" value="MIPI1" style="rounded=0;whiteSpace=wrap;html=1;" parent="1" vertex="1">
          <mxGeometry x="560" y="-120" width="360" height="120" as="geometry" />
        </mxCell>
        <mxCell id="SCgSe4FGh3BIuNATgcF7-118" value="3V3" style="endArrow=classic;html=1;rounded=0;entryX=0.75;entryY=1;entryDx=0;entryDy=0;" parent="1" edge="1">
          <mxGeometry x="-1" width="50" height="50" relative="1" as="geometry">
            <mxPoint x="800" y="149.99999999999994" as="sourcePoint" />
            <mxPoint x="800" y="120" as="targetPoint" />
            <mxPoint as="offset" />
          </mxGeometry>
        </mxCell>
        <mxCell id="SCgSe4FGh3BIuNATgcF7-119" value="3V3" style="endArrow=classic;html=1;rounded=0;entryX=0.75;entryY=0;entryDx=0;entryDy=0;" parent="1" edge="1">
          <mxGeometry x="-1" width="50" height="50" relative="1" as="geometry">
            <mxPoint x="800" y="770" as="sourcePoint" />
            <mxPoint x="800.0000000000002" y="800" as="targetPoint" />
            <mxPoint as="offset" />
          </mxGeometry>
        </mxCell>
        <mxCell id="SCgSe4FGh3BIuNATgcF7-126" style="edgeStyle=orthogonalEdgeStyle;rounded=0;orthogonalLoop=1;jettySize=auto;html=1;exitX=0;exitY=0.25;exitDx=0;exitDy=0;" parent="1" edge="1">
          <mxGeometry relative="1" as="geometry">
            <mxPoint x="320" y="219.7" as="sourcePoint" />
            <mxPoint x="80" y="219.7" as="targetPoint" />
            <Array as="points">
              <mxPoint x="130" y="219.7" />
              <mxPoint x="130" y="219.7" />
            </Array>
          </mxGeometry>
        </mxCell>
        <mxCell id="SCgSe4FGh3BIuNATgcF7-127" value="&lt;div&gt;VBUS&lt;/div&gt;" style="edgeLabel;html=1;align=center;verticalAlign=middle;resizable=0;points=[];" parent="SCgSe4FGh3BIuNATgcF7-126" vertex="1" connectable="0">
          <mxGeometry x="0.4979" relative="1" as="geometry">
            <mxPoint x="60" as="offset" />
          </mxGeometry>
        </mxCell>
        <mxCell id="SCgSe4FGh3BIuNATgcF7-129" value="GPIO" style="rounded=0;whiteSpace=wrap;html=1;" parent="1" vertex="1">
          <mxGeometry x="440" width="80" height="120" as="geometry" />
        </mxCell>
        <mxCell id="SCgSe4FGh3BIuNATgcF7-130" value="RT9742" style="rounded=0;whiteSpace=wrap;html=1;" parent="1" vertex="1">
          <mxGeometry x="1200" y="960" width="60" height="40" as="geometry" />
        </mxCell>
        <mxCell id="SCgSe4FGh3BIuNATgcF7-132" value="5V_HDMI" style="endArrow=none;html=1;rounded=0;startArrow=classic;startFill=1;" parent="1" edge="1">
          <mxGeometry x="-1" y="-10" width="50" height="50" relative="1" as="geometry">
            <mxPoint x="1229.9799999999998" y="1020" as="sourcePoint" />
            <mxPoint x="1229.82" y="1000" as="targetPoint" />
            <mxPoint x="-10" y="10" as="offset" />
          </mxGeometry>
        </mxCell>
        <mxCell id="SCgSe4FGh3BIuNATgcF7-135" value="5V_HDMI" style="endArrow=classic;html=1;rounded=0;" parent="1" edge="1">
          <mxGeometry x="-1" y="-19" width="50" height="50" relative="1" as="geometry">
            <mxPoint x="1289.31" y="630" as="sourcePoint" />
            <mxPoint x="1320" y="630" as="targetPoint" />
            <mxPoint x="-19" y="-19" as="offset" />
          </mxGeometry>
        </mxCell>
        <mxCell id="SCgSe4FGh3BIuNATgcF7-136" value="5V_HDMI" style="endArrow=classic;html=1;rounded=0;" parent="1" edge="1">
          <mxGeometry x="-1" y="-19" width="50" height="50" relative="1" as="geometry">
            <mxPoint x="1289.31" y="770" as="sourcePoint" />
            <mxPoint x="1320" y="770" as="targetPoint" />
            <mxPoint x="-19" y="-19" as="offset" />
          </mxGeometry>
        </mxCell>
        <mxCell id="SCgSe4FGh3BIuNATgcF7-137" value="5V" style="endArrow=classic;html=1;rounded=0;entryX=0.75;entryY=0;entryDx=0;entryDy=0;" parent="1" edge="1">
          <mxGeometry x="-1" width="50" height="50" relative="1" as="geometry">
            <mxPoint x="1229.8" y="930" as="sourcePoint" />
            <mxPoint x="1229.8000000000002" y="960" as="targetPoint" />
            <mxPoint as="offset" />
          </mxGeometry>
        </mxCell>
        <mxCell id="SCgSe4FGh3BIuNATgcF7-138" value="RT9742" style="rounded=0;whiteSpace=wrap;html=1;" parent="1" vertex="1">
          <mxGeometry x="1275" y="960" width="60" height="40" as="geometry" />
        </mxCell>
        <mxCell id="SCgSe4FGh3BIuNATgcF7-139" value="3V3_SD" style="endArrow=none;html=1;rounded=0;startArrow=classic;startFill=1;" parent="1" edge="1">
          <mxGeometry x="-1" y="-10" width="50" height="50" relative="1" as="geometry">
            <mxPoint x="1304.9799999999998" y="1020" as="sourcePoint" />
            <mxPoint x="1304.82" y="1000" as="targetPoint" />
            <mxPoint x="-10" y="10" as="offset" />
          </mxGeometry>
        </mxCell>
        <mxCell id="SCgSe4FGh3BIuNATgcF7-140" value="3V3" style="endArrow=classic;html=1;rounded=0;entryX=0.75;entryY=0;entryDx=0;entryDy=0;" parent="1" edge="1">
          <mxGeometry x="-1" width="50" height="50" relative="1" as="geometry">
            <mxPoint x="1304.8" y="930" as="sourcePoint" />
            <mxPoint x="1304.8000000000002" y="960" as="targetPoint" />
            <mxPoint as="offset" />
          </mxGeometry>
        </mxCell>
        <mxCell id="SCgSe4FGh3BIuNATgcF7-142" value="FAN" style="rounded=0;whiteSpace=wrap;html=1;" parent="1" vertex="1">
          <mxGeometry x="440" y="800" width="80" height="120" as="geometry" />
        </mxCell>
        <mxCell id="SCgSe4FGh3BIuNATgcF7-143" value="GPIO" style="edgeStyle=orthogonalEdgeStyle;rounded=0;orthogonalLoop=1;jettySize=auto;html=1;exitX=0.5;exitY=0;exitDx=0;exitDy=0;entryX=0.5;entryY=1;entryDx=0;entryDy=0;" parent="1" edge="1">
          <mxGeometry x="0.5" relative="1" as="geometry">
            <mxPoint x="480" y="200" as="sourcePoint" />
            <mxPoint x="480" y="120" as="targetPoint" />
            <mxPoint as="offset" />
            <Array as="points">
              <mxPoint x="480" y="140" />
              <mxPoint x="480" y="140" />
            </Array>
          </mxGeometry>
        </mxCell>
        <mxCell id="SCgSe4FGh3BIuNATgcF7-144" value="ESD" style="rounded=0;whiteSpace=wrap;html=1;" parent="1" vertex="1">
          <mxGeometry x="440" y="160" width="40" height="20" as="geometry" />
        </mxCell>
        <mxCell id="SCgSe4FGh3BIuNATgcF7-145" value="" style="endArrow=classic;startArrow=classic;html=1;rounded=0;exitX=0.5;exitY=0;exitDx=0;exitDy=0;" parent="1" edge="1">
          <mxGeometry width="50" height="50" relative="1" as="geometry">
            <mxPoint x="480" y="800" as="sourcePoint" />
            <mxPoint x="480.33000000000004" y="720" as="targetPoint" />
          </mxGeometry>
        </mxCell>
        <mxCell id="SCgSe4FGh3BIuNATgcF7-146" value="PCIe x1 (Gen 2/3)" style="edgeStyle=orthogonalEdgeStyle;rounded=0;orthogonalLoop=1;jettySize=auto;html=1;entryX=0;entryY=0.846;entryDx=0;entryDy=0;entryPerimeter=0;startArrow=classic;startFill=1;" parent="1" target="SCgSe4FGh3BIuNATgcF7-7" edge="1">
          <mxGeometry x="0.3686" relative="1" as="geometry">
            <mxPoint x="220" y="800" as="sourcePoint" />
            <mxPoint x="280" y="679.96" as="targetPoint" />
            <Array as="points">
              <mxPoint x="220" y="640" />
            </Array>
            <mxPoint as="offset" />
          </mxGeometry>
        </mxCell>
        <mxCell id="SCgSe4FGh3BIuNATgcF7-147" value="ESD" style="rounded=0;whiteSpace=wrap;html=1;" parent="1" vertex="1">
          <mxGeometry x="180" y="740" width="40" height="20" as="geometry" />
        </mxCell>
        <mxCell id="SCgSe4FGh3BIuNATgcF7-148" value="USB-PD MUX" style="rounded=0;whiteSpace=wrap;html=1;" parent="1" vertex="1">
          <mxGeometry x="320" y="540" width="80" height="40" as="geometry" />
        </mxCell>
        <mxCell id="SCgSe4FGh3BIuNATgcF7-151" value="" style="endArrow=classic;startArrow=classic;html=1;rounded=0;" parent="1" edge="1">
          <mxGeometry width="50" height="50" relative="1" as="geometry">
            <mxPoint x="400" y="559.6" as="sourcePoint" />
            <mxPoint x="440" y="559.6" as="targetPoint" />
          </mxGeometry>
        </mxCell>
        <mxCell id="SCgSe4FGh3BIuNATgcF7-152" value="ESD" style="rounded=0;whiteSpace=wrap;html=1;" parent="1" vertex="1">
          <mxGeometry x="120" y="320" width="40" height="20" as="geometry" />
        </mxCell>
        <mxCell id="SCgSe4FGh3BIuNATgcF7-153" value="USB 3.0" style="edgeStyle=orthogonalEdgeStyle;rounded=0;orthogonalLoop=1;jettySize=auto;html=1;startArrow=classic;startFill=1;" parent="1" edge="1">
          <mxGeometry relative="1" as="geometry">
            <mxPoint x="320" y="320" as="sourcePoint" />
            <mxPoint x="80" y="320" as="targetPoint" />
            <Array as="points">
              <mxPoint x="170" y="320" />
              <mxPoint x="170" y="320" />
            </Array>
          </mxGeometry>
        </mxCell>
        <mxCell id="SCgSe4FGh3BIuNATgcF7-154" value="USB-PD MUX" style="rounded=0;whiteSpace=wrap;html=1;" parent="1" vertex="1">
          <mxGeometry x="320" y="300" width="80" height="40" as="geometry" />
        </mxCell>
        <mxCell id="SCgSe4FGh3BIuNATgcF7-155" value="" style="endArrow=classic;startArrow=classic;html=1;rounded=0;" parent="1" edge="1">
          <mxGeometry width="50" height="50" relative="1" as="geometry">
            <mxPoint x="400" y="319.6" as="sourcePoint" />
            <mxPoint x="440" y="319.6" as="targetPoint" />
          </mxGeometry>
        </mxCell>
      </root>
    </mxGraphModel>
  </diagram>
</mxfile>
